<mxfile host="app.diagrams.net" agent="Mozilla/5.0 (Macintosh; Intel Mac OS X 10_15_7) AppleWebKit/605.1.15 (KHTML, like Gecko) Version/18.3 Safari/605.1.15" version="26.0.13">
  <diagram id="C5RBs43oDa-KdzZeNtuy" name="Page-1">
    <mxGraphModel dx="957" dy="546" grid="1" gridSize="10" guides="1" tooltips="1" connect="1" arrows="1" fold="1" page="1" pageScale="1" pageWidth="827" pageHeight="1169" math="0" shadow="0">
      <root>
        <mxCell id="WIyWlLk6GJQsqaUBKTNV-0" />
        <mxCell id="WIyWlLk6GJQsqaUBKTNV-1" parent="WIyWlLk6GJQsqaUBKTNV-0" />
        <mxCell id="sLMZmWPwiod_pK6JV0cd-17" value="Question" style="swimlane;fontStyle=1;align=center;verticalAlign=top;childLayout=stackLayout;horizontal=1;startSize=26;horizontalStack=0;resizeParent=1;resizeParentMax=0;resizeLast=0;collapsible=1;marginBottom=0;whiteSpace=wrap;html=1;fontFamily=Verdana;fontSize=12;" vertex="1" parent="WIyWlLk6GJQsqaUBKTNV-1">
          <mxGeometry x="140" y="80" width="140" height="156" as="geometry">
            <mxRectangle x="30" y="80" width="100" height="30" as="alternateBounds" />
          </mxGeometry>
        </mxCell>
        <mxCell id="sLMZmWPwiod_pK6JV0cd-18" value="&lt;span style=&quot;caret-color: rgb(0, 0, 0); color: rgb(0, 0, 0);&quot;&gt;questionID:&amp;nbsp;&lt;/span&gt;&lt;span class=&quot;hljs-type&quot; style=&quot;caret-color: rgb(0, 0, 0); color: rgb(0, 0, 0);&quot;&gt;int&lt;/span&gt;&lt;span style=&quot;caret-color: rgb(0, 0, 0); color: rgb(0, 0, 0);&quot;&gt;&amp;nbsp;&lt;/span&gt;&lt;div&gt;&lt;span style=&quot;caret-color: rgb(0, 0, 0); color: rgb(0, 0, 0);&quot;&gt;text:&amp;nbsp;&lt;/span&gt;&lt;span class=&quot;hljs-type&quot; style=&quot;caret-color: rgb(0, 0, 0); color: rgb(0, 0, 0);&quot;&gt;String&lt;/span&gt;&lt;span style=&quot;caret-color: rgb(0, 0, 0); color: rgb(0, 0, 0);&quot;&gt;&amp;nbsp;&lt;/span&gt;&lt;/div&gt;&lt;div&gt;&lt;span style=&quot;caret-color: rgb(0, 0, 0); color: rgb(0, 0, 0);&quot;&gt;creationDate:&amp;nbsp;&lt;/span&gt;&lt;span class=&quot;hljs-type&quot; style=&quot;caret-color: rgb(0, 0, 0); color: rgb(0, 0, 0);&quot;&gt;String&lt;/span&gt;&lt;/div&gt;" style="text;strokeColor=none;fillColor=none;align=left;verticalAlign=top;spacingLeft=4;spacingRight=4;overflow=hidden;rotatable=0;points=[[0,0.5],[1,0.5]];portConstraint=eastwest;whiteSpace=wrap;html=1;fontFamily=Verdana;fontSize=12;" vertex="1" parent="sLMZmWPwiod_pK6JV0cd-17">
          <mxGeometry y="26" width="140" height="54" as="geometry" />
        </mxCell>
        <mxCell id="sLMZmWPwiod_pK6JV0cd-19" value="" style="line;strokeWidth=1;fillColor=none;align=left;verticalAlign=middle;spacingTop=-1;spacingLeft=3;spacingRight=3;rotatable=0;labelPosition=right;points=[];portConstraint=eastwest;strokeColor=inherit;fontFamily=Verdana;fontSize=12;" vertex="1" parent="sLMZmWPwiod_pK6JV0cd-17">
          <mxGeometry y="80" width="140" height="8" as="geometry" />
        </mxCell>
        <mxCell id="sLMZmWPwiod_pK6JV0cd-20" value="&lt;div&gt;create()&lt;/div&gt;&lt;div&gt;retrieve()&lt;/div&gt;&lt;div&gt;update()&lt;/div&gt;&lt;div&gt;delete()&lt;/div&gt;&lt;div&gt;&lt;br&gt;&lt;/div&gt;" style="text;strokeColor=none;fillColor=none;align=left;verticalAlign=top;spacingLeft=4;spacingRight=4;overflow=hidden;rotatable=0;points=[[0,0.5],[1,0.5]];portConstraint=eastwest;whiteSpace=wrap;html=1;fontFamily=Verdana;fontSize=12;" vertex="1" parent="sLMZmWPwiod_pK6JV0cd-17">
          <mxGeometry y="88" width="140" height="68" as="geometry" />
        </mxCell>
        <mxCell id="sLMZmWPwiod_pK6JV0cd-21" value="&lt;code style=&quot;text-align: start; caret-color: rgb(0, 0, 0); color: rgb(0, 0, 0);&quot; data-end=&quot;1029&quot; data-start=&quot;1018&quot;&gt;&lt;b&gt;&lt;font style=&quot;font-size: 13px;&quot;&gt;Questions&lt;/font&gt;&lt;/b&gt;&lt;/code&gt;" style="swimlane;fontStyle=0;align=center;verticalAlign=top;childLayout=stackLayout;horizontal=1;startSize=26;horizontalStack=0;resizeParent=1;resizeParentMax=0;resizeLast=0;collapsible=1;marginBottom=0;whiteSpace=wrap;html=1;fontSize=12;fontFamily=Verdana;" vertex="1" parent="WIyWlLk6GJQsqaUBKTNV-1">
          <mxGeometry x="100" y="460" width="190" height="140" as="geometry" />
        </mxCell>
        <mxCell id="sLMZmWPwiod_pK6JV0cd-22" value="&lt;span style=&quot;caret-color: rgb(0, 0, 0); color: rgb(0, 0, 0);&quot;&gt;questionList: List&amp;lt;Question&amp;gt;&lt;/span&gt;" style="text;strokeColor=none;fillColor=none;align=left;verticalAlign=top;spacingLeft=4;spacingRight=4;overflow=hidden;rotatable=0;points=[[0,0.5],[1,0.5]];portConstraint=eastwest;whiteSpace=wrap;html=1;fontSize=12;fontFamily=Verdana;fontStyle=0" vertex="1" parent="sLMZmWPwiod_pK6JV0cd-21">
          <mxGeometry y="26" width="190" height="34" as="geometry" />
        </mxCell>
        <mxCell id="sLMZmWPwiod_pK6JV0cd-23" value="" style="line;strokeWidth=1;fillColor=none;align=left;verticalAlign=middle;spacingTop=-1;spacingLeft=3;spacingRight=3;rotatable=0;labelPosition=right;points=[];portConstraint=eastwest;strokeColor=inherit;fontSize=12;fontFamily=Verdana;fontStyle=0" vertex="1" parent="sLMZmWPwiod_pK6JV0cd-21">
          <mxGeometry y="60" width="190" height="8" as="geometry" />
        </mxCell>
        <mxCell id="sLMZmWPwiod_pK6JV0cd-24" value="&lt;span style=&quot;caret-color: rgb(0, 0, 0); color: rgb(0, 0, 0);&quot; class=&quot;hljs-built_in&quot;&gt;addQuestion&lt;/span&gt;&lt;span style=&quot;caret-color: rgb(0, 0, 0); color: rgb(0, 0, 0);&quot;&gt;()&lt;/span&gt;&lt;div&gt;&lt;span style=&quot;caret-color: rgb(0, 0, 0); color: rgb(0, 0, 0);&quot; class=&quot;hljs-built_in&quot;&gt;retrieveQuestion&lt;/span&gt;&lt;span style=&quot;caret-color: rgb(0, 0, 0); color: rgb(0, 0, 0);&quot;&gt;()&lt;/span&gt;&lt;/div&gt;&lt;div&gt;&lt;span style=&quot;caret-color: rgb(0, 0, 0); color: rgb(0, 0, 0);&quot; class=&quot;hljs-built_in&quot;&gt;updateQuestion&lt;/span&gt;&lt;span style=&quot;caret-color: rgb(0, 0, 0); color: rgb(0, 0, 0);&quot;&gt;()&lt;/span&gt;&lt;/div&gt;&lt;div&gt;&lt;span style=&quot;caret-color: rgb(0, 0, 0); color: rgb(0, 0, 0);&quot; class=&quot;hljs-built_in&quot;&gt;deleteQuestion&lt;/span&gt;&lt;span style=&quot;caret-color: rgb(0, 0, 0); color: rgb(0, 0, 0);&quot;&gt;()&lt;/span&gt;&lt;/div&gt;" style="text;strokeColor=none;fillColor=none;align=left;verticalAlign=top;spacingLeft=4;spacingRight=4;overflow=hidden;rotatable=0;points=[[0,0.5],[1,0.5]];portConstraint=eastwest;whiteSpace=wrap;html=1;fontSize=12;fontFamily=Verdana;fontStyle=0" vertex="1" parent="sLMZmWPwiod_pK6JV0cd-21">
          <mxGeometry y="68" width="190" height="72" as="geometry" />
        </mxCell>
        <mxCell id="sLMZmWPwiod_pK6JV0cd-25" value="&lt;code data-start=&quot;813&quot; data-end=&quot;821&quot; style=&quot;text-align: start; caret-color: rgb(0, 0, 0); color: rgb(0, 0, 0);&quot;&gt;Answer&lt;/code&gt;" style="swimlane;fontStyle=1;align=center;verticalAlign=top;childLayout=stackLayout;horizontal=1;startSize=26;horizontalStack=0;resizeParent=1;resizeParentMax=0;resizeLast=0;collapsible=1;marginBottom=0;whiteSpace=wrap;html=1;fontFamily=Verdana;fontSize=13;" vertex="1" parent="WIyWlLk6GJQsqaUBKTNV-1">
          <mxGeometry x="520" y="80" width="110" height="160" as="geometry" />
        </mxCell>
        <mxCell id="sLMZmWPwiod_pK6JV0cd-26" value="&lt;span style=&quot;caret-color: rgb(0, 0, 0); color: rgb(0, 0, 0);&quot;&gt;answerID:&amp;nbsp;&lt;/span&gt;&lt;span class=&quot;hljs-type&quot; style=&quot;caret-color: rgb(0, 0, 0); color: rgb(0, 0, 0);&quot;&gt;int&lt;/span&gt;&lt;div&gt;&lt;span style=&quot;caret-color: rgb(0, 0, 0); color: rgb(0, 0, 0);&quot;&gt;text:&amp;nbsp;&lt;/span&gt;&lt;span class=&quot;hljs-type&quot; style=&quot;caret-color: rgb(0, 0, 0); color: rgb(0, 0, 0);&quot;&gt;String&lt;/span&gt;&lt;/div&gt;&lt;div&gt;&lt;span style=&quot;caret-color: rgb(0, 0, 0); color: rgb(0, 0, 0);&quot;&gt;questionID:&amp;nbsp;&lt;/span&gt;&lt;span class=&quot;hljs-type&quot; style=&quot;caret-color: rgb(0, 0, 0); color: rgb(0, 0, 0);&quot;&gt;int&lt;/span&gt;&lt;/div&gt;" style="text;strokeColor=none;fillColor=none;align=left;verticalAlign=top;spacingLeft=4;spacingRight=4;overflow=hidden;rotatable=0;points=[[0,0.5],[1,0.5]];portConstraint=eastwest;whiteSpace=wrap;html=1;fontFamily=Verdana;fontSize=12;" vertex="1" parent="sLMZmWPwiod_pK6JV0cd-25">
          <mxGeometry y="26" width="110" height="54" as="geometry" />
        </mxCell>
        <mxCell id="sLMZmWPwiod_pK6JV0cd-27" value="" style="line;strokeWidth=1;fillColor=none;align=left;verticalAlign=middle;spacingTop=-1;spacingLeft=3;spacingRight=3;rotatable=0;labelPosition=right;points=[];portConstraint=eastwest;strokeColor=inherit;fontFamily=Verdana;fontSize=12;" vertex="1" parent="sLMZmWPwiod_pK6JV0cd-25">
          <mxGeometry y="80" width="110" height="8" as="geometry" />
        </mxCell>
        <mxCell id="sLMZmWPwiod_pK6JV0cd-28" value="&lt;span class=&quot;hljs-built_in&quot; style=&quot;caret-color: rgb(0, 0, 0); color: rgb(0, 0, 0);&quot;&gt;create&lt;/span&gt;&lt;span style=&quot;caret-color: rgb(0, 0, 0); color: rgb(0, 0, 0);&quot;&gt;()&lt;/span&gt;&lt;div&gt;&lt;span class=&quot;hljs-built_in&quot; style=&quot;caret-color: rgb(0, 0, 0); color: rgb(0, 0, 0);&quot;&gt;retrieve&lt;/span&gt;&lt;span style=&quot;caret-color: rgb(0, 0, 0); color: rgb(0, 0, 0);&quot;&gt;()&lt;/span&gt;&lt;/div&gt;&lt;div&gt;&lt;span class=&quot;hljs-built_in&quot; style=&quot;caret-color: rgb(0, 0, 0); color: rgb(0, 0, 0);&quot;&gt;update&lt;/span&gt;&lt;span style=&quot;caret-color: rgb(0, 0, 0); color: rgb(0, 0, 0);&quot;&gt;()&lt;/span&gt;&lt;/div&gt;&lt;div&gt;&lt;span class=&quot;hljs-built_in&quot; style=&quot;caret-color: rgb(0, 0, 0); color: rgb(0, 0, 0);&quot;&gt;delete&lt;/span&gt;&lt;span style=&quot;caret-color: rgb(0, 0, 0); color: rgb(0, 0, 0);&quot;&gt;()&lt;/span&gt;&lt;/div&gt;" style="text;strokeColor=none;fillColor=none;align=left;verticalAlign=top;spacingLeft=4;spacingRight=4;overflow=hidden;rotatable=0;points=[[0,0.5],[1,0.5]];portConstraint=eastwest;whiteSpace=wrap;html=1;fontFamily=Verdana;fontSize=12;" vertex="1" parent="sLMZmWPwiod_pK6JV0cd-25">
          <mxGeometry y="88" width="110" height="72" as="geometry" />
        </mxCell>
        <mxCell id="sLMZmWPwiod_pK6JV0cd-29" value="&lt;code style=&quot;font-weight: 400; text-align: start; caret-color: rgb(0, 0, 0); color: rgb(0, 0, 0);&quot; data-end=&quot;1288&quot; data-start=&quot;1279&quot;&gt;Answers&lt;/code&gt;" style="swimlane;fontStyle=1;align=center;verticalAlign=top;childLayout=stackLayout;horizontal=1;startSize=26;horizontalStack=0;resizeParent=1;resizeParentMax=0;resizeLast=0;collapsible=1;marginBottom=0;whiteSpace=wrap;html=1;" vertex="1" parent="WIyWlLk6GJQsqaUBKTNV-1">
          <mxGeometry x="480" y="460" width="250" height="130" as="geometry" />
        </mxCell>
        <mxCell id="sLMZmWPwiod_pK6JV0cd-30" value="&lt;span style=&quot;caret-color: rgb(0, 0, 0); color: rgb(0, 0, 0); font-size: medium;&quot;&gt;answerList:&amp;nbsp;&lt;/span&gt;&lt;span style=&quot;caret-color: rgb(0, 0, 0); color: rgb(0, 0, 0);&quot; class=&quot;hljs-type&quot;&gt;Map&lt;/span&gt;&lt;span style=&quot;caret-color: rgb(0, 0, 0); color: rgb(0, 0, 0); font-size: medium;&quot;&gt;&amp;lt;int,&amp;nbsp;&lt;/span&gt;&lt;span style=&quot;caret-color: rgb(0, 0, 0); color: rgb(0, 0, 0);&quot; class=&quot;hljs-type&quot;&gt;List&lt;/span&gt;&lt;span style=&quot;caret-color: rgb(0, 0, 0); color: rgb(0, 0, 0); font-size: medium;&quot;&gt;&amp;lt;&lt;/span&gt;&lt;span style=&quot;caret-color: rgb(0, 0, 0); color: rgb(0, 0, 0);&quot; class=&quot;hljs-type&quot;&gt;Answer&lt;/span&gt;&lt;span style=&quot;caret-color: rgb(0, 0, 0); color: rgb(0, 0, 0); font-size: medium;&quot;&gt;&amp;gt;&amp;gt;&lt;/span&gt;" style="text;strokeColor=none;fillColor=none;align=left;verticalAlign=top;spacingLeft=4;spacingRight=4;overflow=hidden;rotatable=0;points=[[0,0.5],[1,0.5]];portConstraint=eastwest;whiteSpace=wrap;html=1;" vertex="1" parent="sLMZmWPwiod_pK6JV0cd-29">
          <mxGeometry y="26" width="250" height="26" as="geometry" />
        </mxCell>
        <mxCell id="sLMZmWPwiod_pK6JV0cd-31" value="" style="line;strokeWidth=1;fillColor=none;align=left;verticalAlign=middle;spacingTop=-1;spacingLeft=3;spacingRight=3;rotatable=0;labelPosition=right;points=[];portConstraint=eastwest;strokeColor=inherit;" vertex="1" parent="sLMZmWPwiod_pK6JV0cd-29">
          <mxGeometry y="52" width="250" height="8" as="geometry" />
        </mxCell>
        <mxCell id="sLMZmWPwiod_pK6JV0cd-32" value="&lt;span style=&quot;caret-color: rgb(0, 0, 0); color: rgb(0, 0, 0);&quot; class=&quot;hljs-built_in&quot;&gt;addAnswer&lt;/span&gt;&lt;span style=&quot;caret-color: rgb(0, 0, 0); color: rgb(0, 0, 0); font-size: medium;&quot;&gt;()&lt;/span&gt;&lt;div&gt;&lt;span style=&quot;caret-color: rgb(0, 0, 0); color: rgb(0, 0, 0);&quot; class=&quot;hljs-built_in&quot;&gt;retrieveAnswers&lt;/span&gt;&lt;span style=&quot;caret-color: rgb(0, 0, 0); color: rgb(0, 0, 0); font-size: medium;&quot;&gt;()&lt;/span&gt;&lt;/div&gt;&lt;div&gt;&lt;span style=&quot;caret-color: rgb(0, 0, 0); color: rgb(0, 0, 0);&quot; class=&quot;hljs-built_in&quot;&gt;deleteAnswersForQuestion&lt;/span&gt;&lt;span style=&quot;caret-color: rgb(0, 0, 0); color: rgb(0, 0, 0); font-size: medium;&quot;&gt;()&lt;/span&gt;&lt;/div&gt;" style="text;strokeColor=none;fillColor=none;align=left;verticalAlign=top;spacingLeft=4;spacingRight=4;overflow=hidden;rotatable=0;points=[[0,0.5],[1,0.5]];portConstraint=eastwest;whiteSpace=wrap;html=1;" vertex="1" parent="sLMZmWPwiod_pK6JV0cd-29">
          <mxGeometry y="60" width="250" height="70" as="geometry" />
        </mxCell>
        <mxCell id="sLMZmWPwiod_pK6JV0cd-54" value="&lt;code data-start=&quot;598&quot; data-end=&quot;601&quot; style=&quot;font-style: normal; font-variant-caps: normal; font-weight: 400; letter-spacing: normal; orphans: auto; text-align: start; text-indent: 0px; text-transform: none; white-space: normal; widows: auto; word-spacing: 0px; -webkit-text-stroke-width: 0px; text-decoration: none; caret-color: rgb(0, 0, 0); color: rgb(0, 0, 0);&quot;&gt;◊&lt;/code&gt;" style="text;whiteSpace=wrap;html=1;" vertex="1" parent="WIyWlLk6GJQsqaUBKTNV-1">
          <mxGeometry x="202.5" y="430" width="10" height="30" as="geometry" />
        </mxCell>
        <mxCell id="sLMZmWPwiod_pK6JV0cd-68" style="edgeStyle=none;curved=1;rounded=0;orthogonalLoop=1;jettySize=auto;html=1;exitX=0.25;exitY=1;exitDx=0;exitDy=0;entryX=0.25;entryY=0;entryDx=0;entryDy=0;fontSize=12;startSize=8;endSize=8;" edge="1" parent="WIyWlLk6GJQsqaUBKTNV-1" source="sLMZmWPwiod_pK6JV0cd-57" target="sLMZmWPwiod_pK6JV0cd-54">
          <mxGeometry relative="1" as="geometry" />
        </mxCell>
        <mxCell id="sLMZmWPwiod_pK6JV0cd-57" value="&lt;span style=&quot;font-style: normal; font-variant-caps: normal; font-weight: 400; letter-spacing: normal; orphans: auto; text-align: start; text-indent: 0px; text-transform: none; white-space: normal; widows: auto; word-spacing: 0px; -webkit-text-stroke-width: 0px; text-decoration: none; caret-color: rgb(0, 0, 0); color: rgb(0, 0, 0); font-size: medium; float: none; display: inline !important;&quot;&gt;*&lt;/span&gt;" style="text;whiteSpace=wrap;html=1;" vertex="1" parent="WIyWlLk6GJQsqaUBKTNV-1">
          <mxGeometry x="202.5" y="236" width="15" height="20" as="geometry" />
        </mxCell>
        <mxCell id="sLMZmWPwiod_pK6JV0cd-58" value="&lt;span style=&quot;font-style: normal; font-variant-caps: normal; font-weight: 400; letter-spacing: normal; orphans: auto; text-align: start; text-indent: 0px; text-transform: none; white-space: normal; widows: auto; word-spacing: 0px; -webkit-text-stroke-width: 0px; text-decoration: none; caret-color: rgb(0, 0, 0); color: rgb(0, 0, 0); font-size: medium; float: none; display: inline !important;&quot;&gt;*&lt;/span&gt;" style="text;whiteSpace=wrap;html=1;" vertex="1" parent="WIyWlLk6GJQsqaUBKTNV-1">
          <mxGeometry x="500" y="140" width="15" height="20" as="geometry" />
        </mxCell>
        <mxCell id="sLMZmWPwiod_pK6JV0cd-67" style="edgeStyle=none;curved=1;rounded=0;orthogonalLoop=1;jettySize=auto;html=1;exitX=1;exitY=0.5;exitDx=0;exitDy=0;entryX=0;entryY=0.5;entryDx=0;entryDy=0;fontSize=12;startSize=8;endSize=8;" edge="1" parent="WIyWlLk6GJQsqaUBKTNV-1" source="sLMZmWPwiod_pK6JV0cd-59" target="sLMZmWPwiod_pK6JV0cd-58">
          <mxGeometry relative="1" as="geometry" />
        </mxCell>
        <mxCell id="sLMZmWPwiod_pK6JV0cd-59" value="&lt;code data-start=&quot;24&quot; data-end=&quot;30&quot; style=&quot;font-style: normal; font-variant-caps: normal; font-weight: 400; letter-spacing: normal; orphans: auto; text-align: start; text-indent: 0px; text-transform: none; white-space: normal; widows: auto; word-spacing: 0px; -webkit-text-stroke-width: 0px; text-decoration: none; caret-color: rgb(0, 0, 0); color: rgb(0, 0, 0);&quot;&gt;1&lt;/code&gt;" style="text;whiteSpace=wrap;html=1;" vertex="1" parent="WIyWlLk6GJQsqaUBKTNV-1">
          <mxGeometry x="290" y="140" width="20" height="20" as="geometry" />
        </mxCell>
        <mxCell id="sLMZmWPwiod_pK6JV0cd-63" value="&lt;code data-start=&quot;598&quot; data-end=&quot;601&quot; style=&quot;font-style: normal; font-variant-caps: normal; font-weight: 400; letter-spacing: normal; orphans: auto; text-align: start; text-indent: 0px; text-transform: none; white-space: normal; widows: auto; word-spacing: 0px; -webkit-text-stroke-width: 0px; text-decoration: none; caret-color: rgb(0, 0, 0); color: rgb(0, 0, 0);&quot;&gt;◊&lt;/code&gt;" style="text;whiteSpace=wrap;html=1;" vertex="1" parent="WIyWlLk6GJQsqaUBKTNV-1">
          <mxGeometry x="552.5" y="430" width="10" height="30" as="geometry" />
        </mxCell>
        <mxCell id="sLMZmWPwiod_pK6JV0cd-69" style="edgeStyle=none;curved=1;rounded=0;orthogonalLoop=1;jettySize=auto;html=1;exitX=0.25;exitY=1;exitDx=0;exitDy=0;entryX=0.5;entryY=0;entryDx=0;entryDy=0;fontSize=12;startSize=8;endSize=8;" edge="1" parent="WIyWlLk6GJQsqaUBKTNV-1" source="sLMZmWPwiod_pK6JV0cd-64" target="sLMZmWPwiod_pK6JV0cd-63">
          <mxGeometry relative="1" as="geometry" />
        </mxCell>
        <mxCell id="sLMZmWPwiod_pK6JV0cd-64" value="&lt;span style=&quot;font-style: normal; font-variant-caps: normal; font-weight: 400; letter-spacing: normal; orphans: auto; text-align: start; text-indent: 0px; text-transform: none; white-space: normal; widows: auto; word-spacing: 0px; -webkit-text-stroke-width: 0px; text-decoration: none; caret-color: rgb(0, 0, 0); color: rgb(0, 0, 0); font-size: medium; float: none; display: inline !important;&quot;&gt;*&lt;/span&gt;" style="text;whiteSpace=wrap;html=1;" vertex="1" parent="WIyWlLk6GJQsqaUBKTNV-1">
          <mxGeometry x="550" y="240" width="15" height="20" as="geometry" />
        </mxCell>
      </root>
    </mxGraphModel>
  </diagram>
</mxfile>
